<svg width="160" height="160" viewBox="0 0 160 160" fill="none" xmlns="http://www.w3.org/2000/svg">
  <circle cx="80" cy="80" r="78" fill="#FFF4D6" stroke="#121212" stroke-width="4"/>
  <circle cx="80" cy="88" r="54" fill="white" stroke="#121212" stroke-width="4"/>
  <circle cx="55" cy="34" r="16" fill="#D02020" stroke="#121212" stroke-width="4"/>
  <rect x="68" y="18" width="30" height="30" fill="#1040C0" stroke="#121212" stroke-width="4"/>
  <path d="M115 18L132 48H98L115 18Z" fill="#F0C020" stroke="#121212" stroke-width="4"/>
  <circle cx="61" cy="82" r="6" fill="#121212"/>
  <circle cx="99" cy="82" r="6" fill="#121212"/>
  <path d="M60 108C66 117 73 121 80 121C87 121 94 117 100 108" stroke="#121212" stroke-width="5" stroke-linecap="round"/>
  <circle cx="46" cy="98" r="8" fill="#F6C6C6" fill-opacity="0.9"/>
  <circle cx="114" cy="98" r="8" fill="#F6C6C6" fill-opacity="0.9"/>
  <path d="M80 46C71 46 62 50 55 57" stroke="#121212" stroke-width="4" stroke-linecap="round"/>
  <path d="M80 46C89 46 98 50 105 57" stroke="#121212" stroke-width="4" stroke-linecap="round"/>
</svg>
